<?xml version="1.0" encoding="utf-8"?>
<!-- Generator: Adobe Illustrator 24.0.1, SVG Export Plug-In . SVG Version: 6.00 Build 0)  -->
<svg version="1.1" id="Layer_2" xmlns="http://www.w3.org/2000/svg" xmlns:xlink="http://www.w3.org/1999/xlink" x="0px" y="0px"
	 viewBox="0 0 1091 688" style="enable-background:new 0 0 1091 688;" xml:space="preserve">
<style type="text/css">
	.st0{display:none;fill:#FFFFFF;}
	.st1{opacity:0.3;fill:#F3F8ED;}
	.st2{fill:#8CC2E6;}
	.st3{fill:#AFDEF0;}
	.st4{fill:#D3EBF0;}
	.st5{fill:#F8E8E5;}
	.st6{fill:#3E538A;}
	.st7{fill:#36457A;}
	.st8{fill:#FFAB8F;}
	.st9{fill:#DBCCCA;}
	.st10{fill:#FFFFFF;}
	.st11{fill:#F58A78;}
	.st12{fill:#53689C;}
	.st13{fill:#71A7D6;}
	.st14{fill:#FFC6B3;}
	.st15{fill:#D98FAF;}
</style>
<rect class="st0" width="1091" height="688"/>
<g>
	<path class="st1" d="M418.69,105.11c-123.48,97.19-257.99,88-298.84,185.52c-34.08,81.38-111.12,137.08,7.9,286.31
		c24.71,30.98,123.33,21.73,123.33,21.73s418.19,7.19,477.01,7.19c58.82,0,184.65,7.34,250.67-54.31
		c51.68-48.26,95.67-141.64,41.92-221.95c-53.75-80.31-51.1-40.01-94.38-126.02C873.81,99.21,811.74,57.61,724.39,67.21
		C642.5,76.21,525.11,21.34,418.69,105.11z"/>
	<path class="st2" d="M813.53,403.32c1.13,2.81,2.5,5.38,4.08,7.77c11.72,17.92,34.31,26.02,46.18,50.71
		c13.45,27.98,26.03,57.14,27.87,74.02c0.78,7.16,0.14,10.78-0.85,12.57c3.34-2.46,11.02-6.7,11.65-23.46
		c0.99-26.35,2.41-99.44-6.39-127.1c-3.61-11.36-9.33-21.3-15.63-30.39c-9.01-13.06-19.21-24.37-26.02-35.6
		c-11.56-19.05-22.05-27.06-34.31-13.62C808.16,331.32,803.94,379.5,813.53,403.32z"/>
	<path class="st3" d="M906.53,528.28c0,0-21.75-36.77-25.86-73.26c-4.11-36.49,18.48-114.13,22.68-157.42
		c4.2-43.29-3.63-95.17,34.41-99.95c38.04-4.77,23.92,42.21,36.89,68.62c12.97,26.41,28.67,49.95,10.71,92.54
		c-17.96,42.59-52.1,79.82-59.37,106.21c-7.26,26.4-6.03,63.21-15.01,70.91C902.01,543.63,906.53,528.28,906.53,528.28z"/>
	<path class="st2" d="M902.02,446.39c0-0.16,0.03-0.33,0.12-0.5c0,0,0-0.01,0.01-0.01c2.22-8.78,4.97-17.39,7.88-25.62
		c3.97-11.19,8.28-22.31,12.06-33.58c-0.09-0.13-0.16-0.28-0.18-0.47c-1.52-13.01-6.64-25.13-14.9-35.3
		c-0.8-0.99,0.6-2.41,1.41-1.41c7.89,9.71,12.95,20.96,14.98,33.21c2.43-7.53,4.58-15.14,6.19-22.9c4.4-21.16,3.73-42.81,3.34-64.29
		c-0.42-23.3-0.31-46.86,7.08-69.22c0.4-1.22,2.33-0.7,1.93,0.53c-11.83,35.79-4.78,73.54-7.32,110.43
		c7.56-16.98,26.77-27.67,31.96-46.27c0.35-1.24,2.28-0.71,1.93,0.53c-6.21,22.22-32.95,33.36-34.87,57.21
		c-0.02,0.22-0.11,0.4-0.22,0.54c-0.01,0.07-0.02,0.13-0.03,0.2c-4.34,31.79-19.23,60.68-27.92,91.27
		c7.84-10.83,19.24-18.57,32.37-21.81c1.25-0.31,1.78,1.62,0.53,1.93c-14.66,3.62-27.01,12.93-34.51,26.04
		c-0.02,0.03-0.05,0.05-0.07,0.08c-1.4,5.55-2.57,11.17-3.4,16.88c-3.12,21.59-1.35,44.24,10.35,63.14c0.68,1.1-1.05,2.1-1.73,1.01
		C893.62,503.1,895.15,473.9,902.02,446.39z"/>
	<path class="st4" d="M890.81,548.39c-1.91,1.41-3.37,1.52-3.37,1.52S889.45,550.84,890.81,548.39z"/>
	<path class="st5" d="M890.73,609.5h23.98c13.2,0,24.21-8.72,25.37-20.09l5.75-56.18c0.74-7.28-5.89-13.55-14.34-13.55h-58.05
		c-8.5,0-15.15,6.33-14.33,13.65l6.28,56.25C866.64,600.88,877.61,609.5,890.73,609.5z"/>
	<g>
		<path class="st6" d="M789.53,359.54h62.8c5.54,0,10.02-4.49,10.02-10.02l-5-32.8c0-5.54-4.49-10.02-10.02-10.02h-52.8
			c-5.54,0-10.02,4.49-10.02,10.02l-5,32.8C779.51,355.06,784,359.54,789.53,359.54z"/>
		<path class="st7" d="M807.13,306.69c0.31-10.57,6.26-20,13.57-20c7.31,0,13.26,9.43,13.57,20h4.5
			c-0.31-14.2-8.28-25.57-18.07-25.57s-17.76,11.37-18.07,25.57H807.13z"/>
	</g>
	<path class="st8" d="M812.74,217.36c0,0,15.35,6.69,21.68,21.3c6.33,14.61,24,55.21,18.67,61.91c-5.33,6.7-13.17,2.24-17.17-3.66
		c-4-5.89-19.83-41.64-19.83-41.64L812.74,217.36z"/>
	<path class="st8" d="M844.92,283.53l2.41,20.4c0,0-19.04-0.48-34.59-1.06l-0.99-14.91C826.21,286.23,844.92,283.53,844.92,283.53z"
		/>
	<path class="st9" d="M438,155.22c0,0,3.94,11.03-3.18,18.78c-7.11,7.75-16.04,1.25-16.04,1.25l1.34-20.82L438,155.22z"/>
	<path class="st5" d="M437.55,164.16c-1.55,4.75-5.94,7.33-5.94,7.33l-16.54-15.88l-2.45-7.24c0,0,3.08-6.41,4.56-8.9
		c0.79-0.33,1.28-0.53,1.28-0.53s11.82,1.17,18.2,12.35C437.41,152.61,440.09,156.37,437.55,164.16z"/>
	<path class="st7" d="M433.84,226.25c0,0,12.59,4.49,16.59,9.33c4,4.83,5.92,15.96,9.92,28.79c4,12.83,6.67,28.33,6.67,28.33
		s-23-19.53-24.67-19.51c-1.67,0.01-5.33-11.15-5.5-13.32c-0.17-2.17-3.83-12.33-2.83-18.17
		C435.01,235.87,433.84,226.25,433.84,226.25z"/>
	<g>
		<g>
			<path class="st8" d="M424.46,155.5c3.99,0.15,7.22,3.31,7.45,7.3c0.73,12.79,1,38.74-8.57,40.74
				c-9.34,1.95-27.36-1.19-27.98-2.38c-0.62-1.19,0.71-46.73,0.71-46.73L424.46,155.5z"/>
		</g>
		<g>
			<path class="st10" d="M425.35,189.36c0.79,0.03,1.36,0.83,1.07,1.56c-0.88,2.26-3.46,3.83-6.45,3.72
				c-2.99-0.11-5.45-1.88-6.15-4.2c-0.23-0.76,0.39-1.51,1.18-1.48L425.35,189.36z"/>
		</g>
	</g>
	<g>
		<path class="st8" d="M417.69,199.96l-0.6,3.94l-0.94,6.12l-2.38,15.6l-11.87,3.14c0,0-6.06-6.09-6.43-6.54l-4.06-0.31
			c0.64-0.25,3.83-25.28,3.83-25.28L417.69,199.96z"/>
	</g>
	<g>
		<path class="st11" d="M417.05,204.16l-0.9,5.86c-1.47-0.22-3.12-0.62-4.74-1.35c-3.14-1.38-5.65-3.82-6.37-5.43
			c-0.7-1.62,1.63-1.63,5.25-0.41C412.87,203.7,415.63,203.91,417.05,204.16z"/>
	</g>
	<path class="st3" d="M390.19,217.8c0,0,1.52-7.63,2.52-8.69c1-1.05,7.25,0.44,10.38,4.81s6.25,11.19,6.25,11.19
		s-11.38-1.88-11.75-2.13S390.19,217.8,390.19,217.8z"/>
	<path class="st3" d="M414.86,218.44c0,0-0.12,3.31-6.79,3.98c-6.67,0.67-15.68-5.33-15.68-5.33l-14,5.12l48.09,50.99l5.74-21.86
		c0,0-1.58-16.5-1.74-18.33c-0.17-1.83-6.52-11.09-6.52-11.09L414.86,218.44z"/>
	<path class="st6" d="M390.19,217.8c0,0-5.83,1.8-12.52,4.71c-4.8,2.09-18.17,3.97-17.17,13.25c1,9.28,9.17,39.61,14.33,56.11
		c5.17,16.5,8.67,38.67,8.67,39.17s65,4.67,65,4.67l1.83-61.5c0,0-1.42-11.42-3.42-16.13c-2-4.71-7.08-11.37-7.92-15.54
		c-0.83-4.17,0-11.05-1.5-13.77c-1.5-2.73-22.65-10.33-22.65-10.33s10.91,12.41,12.15,25.34c1.29,13.41-2.52,25.48-3.44,25.22
		c-0.77-0.22-11.14-9.27-19.03-21.5C395.45,233.4,390.7,217.8,390.19,217.8z"/>
	<path class="st6" d="M364.68,227.96c0,0-9,4.25-12,11.5s1.56,29.5,7.78,47c6.22,17.5,9.97,29.25,12.47,31s13.75,1,16-1.25
		s-8.5-67.25-9.25-68.75S364.68,227.96,364.68,227.96z"/>
	<path class="st6" d="M399.18,302.7c1.5,0.5,24.25,7.5,24.25,7.5l2,8.22l-10.75,3.95h-31.33c-3.3,0-6.54-1.04-9.13-3.09
		c-0.54-0.43-0.99-0.86-1.25-1.24c-4.69-6.96-4.69-15.36-4.69-15.36S397.68,302.2,399.18,302.7z"/>
	<path class="st12" d="M526.34,328.2h-99.33l16.52-57.67c0.88-3.06,3.67-5.16,6.85-5.16h87.39c3.29,0,5.67,3.15,4.77,6.32
		L526.34,328.2z"/>
	<path class="st6" d="M496.65,293.79c0,2.64-2.91,5.14-5.79,4.79c-2.62-0.32-3.79-2.14-3.79-4.79s3.19-5.31,5.79-4.79
		C496.03,289.63,496.65,291.14,496.65,293.79z"/>
	<path class="st5" d="M424.3,152.9c0,0,3.25,11.09-9.58,13.72c-11.64,2.38-17.81,8.3-17.86,11.18s0.87,12.01-1.64,15.78
		c-1.63,2.46-7.18-17.74-8.87-25.44c-5.37-24.52,22.57-34.74,35.5-27.89c2.85,1.51,7.93,3.43,9.64,8.27
		C433.19,153.36,424.3,152.9,424.3,152.9z"/>
	<path class="st5" d="M432.23,168.99c0-0.16,0-2.17-1.26-7.83c-1.19-5.33-13.29-5.92-13.29-5.92l4.01-2.59c0,0,5.13,0.33,7,1.08
		s3.75,1.25,4.38,2.5s1.63,4.25,1.75,4.75S432.23,168.99,432.23,168.99z"/>
	<path class="st2" d="M730.46,341.38v254.95c0,7.27-5.9,13.17-13.17,13.17H218.8V328.21h498.49
		C724.56,328.21,730.46,334.1,730.46,341.38z"/>
	<path class="st13" d="M730.46,341.38v254.95c0,7.27-5.9,13.17-13.17,13.17H552c39.54-37.46,67-67.5,59.5-144.06
		c-6.41-65.39,15.5-101.81,35.63-137.23h70.16C724.56,328.21,730.46,334.1,730.46,341.38z"/>
	<path class="st11" d="M733.66,283.33c0,0,6.76,7.19,4.67,42.88c-1.46,24.84-2.36,34.46-5.36,37.12c-3,2.67-7.67,0-9.67-2
		s-5.32-26.91-5.97-44.91c-0.65-18-2.72-22.66-2.72-22.66l3.72-10.43H733.66z"/>
	<path class="st11" d="M709.39,217.36c0,0,23.53,60.23,25.86,69.56c2.33,9.33-13.27,9.63-17.6,9.68s-21-38.69-21-38.69l1-31.15
		L709.39,217.36z"/>
	<path class="st12" d="M381.68,328.2h50v-5.83h-44.17C384.29,322.37,381.68,324.98,381.68,328.2L381.68,328.2z"/>
	<path class="st13" d="M270.02,328.2v281.29H130.18c-6.91,0-12.5-5.6-12.5-12.5V340.7c0-6.9,5.59-12.5,12.5-12.5H270.02z"/>
	<g>
		<polygon class="st10" points="271.02,328.21 271.02,609.5 269.02,609.5 269.02,328.2 270.02,328.2 270.02,328.21 		"/>
	</g>
	<g>
		<path class="st14" d="M631.8,576.23l-0.97,14.43c0,0,2.42,2.27,7.13,1.94c4.71-0.33,7.01,2.5,8.19,0.38
			c1.17-2.13,0.97-13.65,0.97-13.65L631.8,576.23z"/>
	</g>
	<path class="st9" d="M707.76,215.47c0,0,4.56,2.27,10.06,14.52s11.83,27.66,10.5,30.5c-1.33,2.84-6,1.21-12.25,9.61
		c-6.25,8.39-9.16,9.99-9.16,9.99s-7.09,2.9-7.09,2.15s-2.58-48.83-3.17-49.42C696.07,232.24,707.76,215.47,707.76,215.47z"/>
	<g>
		<path class="st6" d="M647.13,586.51c-2.69-1.01-10.55,0.38-13.44-1.64c-3.67-2.57-4.81-1.34-5.57,0
			c-0.76,1.34-14.19,11.86-16.47,12.46c-2.28,0.6-7.73,3.16-8.74,8.72c-1.01,5.56,25.85,3.46,27.62,3.01
			c1.77-0.45,1.77-2.26,3.04-1.95c0.63,0.15,0.95,0.6,1.11,1.01c0.2,0.51,0.64,1.39,1.11,1.4c2.67,0.07,10.06,0.22,10.58-0.02
			c0.63-0.3,0.85-8.82,0.68-12.9C646.96,594.64,647.8,586.76,647.13,586.51z"/>
	</g>
	<g>
		<path class="st14" d="M682.47,576.23l-0.97,14.43c0,0,2.42,2.27,7.13,1.94c4.71-0.33,7.01,2.5,8.19,0.38
			c1.17-2.13,0.97-13.65,0.97-13.65L682.47,576.23z"/>
	</g>
	<g>
		<path class="st6" d="M697.7,586.38c-2.69-1.01-10.45,0.52-13.34-1.5c-3.67-2.57-4.81-1.34-5.57,0
			c-0.76,1.34-14.19,11.86-16.47,12.46c-2.28,0.6-7.73,3.16-8.74,8.72c-1.01,5.56,25.85,3.46,27.62,3.01
			c1.77-0.45,1.77-2.26,3.04-1.95c0.63,0.15,0.95,0.6,1.11,1.01c0.2,0.51,0.64,1.39,1.11,1.4c2.67,0.07,10.06,0.22,10.58-0.02
			c0.63-0.3,0.85-8.82,0.68-12.9C697.63,594.64,698.38,586.63,697.7,586.38z"/>
	</g>
	<path class="st8" d="M558.48,240.25c0,0-2.63-5.38-3.63-9.38s-3.5-8-6.75-10.38s-5.25-5.03-5.38-0.88
		c-0.14,4.54,4.21,4.75,3.83,7.5s-9.96,0.13-12.08-4.13s-4.13-8.38-5.75-7.38s-4,10.13-2.14,16c1.43,4.53,4.89,9.75,11.51,15.13
		c5.7,4.62,11.88,6.5,11.88,6.5L558.48,240.25z"/>
	<path class="st12" d="M706.67,371.31c-1.95,41.59-8.11,204.98-8.3,208.2c-0.23,4.16-3.64,3.76-9.46,2.35
		c-4.41-1.07-10.18,1.86-12.14-0.83c-2.02-2.75-11.53-139.87-14.28-187.34c-0.01-0.26-0.14-0.42-0.3-0.5
		c-0.3-0.14-0.72,0.02-0.75,0.5c0,0,0,0.1-0.01,0.28c-3.1,56.62-10.58,182.98-10.73,185.54c-0.23,4.16-3.64,3.76-9.46,2.35
		c-4.41-1.07-10.26,0.01-12.22-2.68c-2.32-3.17-14.49-199.99-14.94-216.95c-0.45-16.96,3-30.27,3-30.27h45.61l0.03,11.39
		c0.88-6.98,2.03-11.39,2.03-11.39s39.91,0.76,39.93,0.88c0,0,1.15,5.52,1.8,15.2C706.9,354.22,707.1,362.1,706.67,371.31z"/>
	<g>
		<path class="st8" d="M622.52,133.79c0,0-4.17,52.17,12.21,52.38c10.44,0.14,33.4-3.03,34.01-4.37c0.61-1.34-4.57-50.27-4.57-50.27
			L622.52,133.79z"/>
	</g>
	<g>
		<path class="st8" d="M672.76,205.2c-0.32,0.58-5.73,8.24-5.73,8.24l-20.23-1.35l-6.2-26.17l27.7-8.35c0,0,3.91,28.26,4.44,27.63
			L672.76,205.2z"/>
	</g>
	<path class="st6" d="M706.67,371.31c-1.95,41.59-8.11,204.98-8.3,208.2c-0.23,4.16-3.64,3.76-9.46,2.35
		c-4.41-1.07-10.18,1.86-12.14-0.83c-2.02-2.75-11.53-139.87-14.28-187.34c-0.01-0.26-0.14-0.42-0.3-0.5
		c3.05-1.99,17.26-6.91,25.83-16.16c10.44-11.27,17.56-28.77,17.56-28.77s0.34-0.09,0.9-0.22
		C706.9,354.22,707.1,362.1,706.67,371.31z"/>
	<g>
		<path class="st12" d="M639.52,168.83c-3.95-5.15-4.33-9.83-3.38-16.25c0.48-3.25,0.25-12.25-7.51-11.87
			c-8.1,0.39-16.28-6.44-12-17.81c4.27-11.37,11.59-10.39,18.2-10.16c6.61,0.22,16.47,3.08,21.19,3.57
			c4.71,0.49,12.77-1.34,16.99,5.66c5.46,9.06,1.12,26.22-1.49,44c-0.32,2.15-1.95,11.29-2.35,13.54c-0.08,0.44-0.26,0.85-0.56,1.18
			c-1.26,1.38-5.38,3.63-16.21-5.97C648.5,171.26,641.94,171.98,639.52,168.83z"/>
	</g>
	<path class="st5" d="M633.52,204.56c0,0,4.83-11.27,7.08-13.1s12.75-4.17,17.75-4s11.65-0.17,14.41,2.83
		c2.76,3,5.26,11.83,5.26,11.83L633.52,204.56z"/>
	<path class="st5" d="M608.29,223.74c-0.14-4.17,2.08-8.13,6.01-10.7c9.45-6.17,28-16.86,44.05-17.55
		c22.65-0.97,47.71,16.73,51.05,21.86c3.34,5.13-2.79,62.45-2.79,72.23c0,9.79,7.69,56.74,3.79,61.87
		c-3.9,5.13-21.74,10.68-42.89,9.74c-21.16-0.93-51.22-3.11-55.05-6.83c-3.83-3.73,1.6-49.86,1.6-67.96
		C614.04,272.68,608.79,238.82,608.29,223.74z"/>
	<path class="st8" d="M611.45,215.47c0,0-30.79,62.52-34.13,67.19c-3.33,4.67-4,26.91,12.33,18.79
		c16.33-8.12,37.33-55.12,37.33-55.12v-23L611.45,215.47z"/>
	<path class="st8" d="M549.98,253.25c0,0,10.98,22.61,15.34,29.75c2.8,4.58,12.5,17.48,12.5,17.48l18.17-22.09
		c0,0-13.31-11.26-17-15.01c-5.69-5.78-20.51-23.12-20.51-23.12h-12.49L549.98,253.25z"/>
	<path class="st5" d="M618,210.7c0,0-8.18,2.05-13.18,9.8s-13,25.25-13.25,28s1.43,14,13.22,20.25c11.78,6.25,19.78,3.5,19.78,3.5
		s12.75-45.49,12.75-47.12c0-1.63-0.25-11.24-1.25-11.69C635.07,212.99,618,210.7,618,210.7z"/>
	<g>
		<path class="st8" d="M774.15,602.08c-0.4,0.52-1.8,1.04-3.85,1.54c-0.05-0.08-0.09-0.15-0.14-0.2c-0.19-0.21-0.98,0.11-2.23,0.71
			c-10.06,1.98-28.75,3.53-30.8,3.35c-0.54-0.05-0.95-0.18-1.26-0.38c-0.26-1.4,0.06-3.17,0.81-4.74c1.3-1.21,6.23-3.73,11.19-6.55
			c5.11-2.89,10.24-6.11,11.45-8.56c3.33-6.75-2.37-40.59-2.37-40.59l21.17,2.83c0,0-3.51,24.61-2.78,34.58
			c0.18,2.5,0.35,4.96,0.42,7.23C775.9,596.14,775.63,600.16,774.15,602.08z"/>
	</g>
	<g>
		<path class="st6" d="M776.75,598.54c-0.3,2.09-2.12,10.07-2.3,10.15c-0.37,0.15-4.44,0.05-6.25-0.18
			c-0.09-0.01,0.96-4.69-1.08-4.2c-6.37,1.53-7.92,4.6-15.08,4.91c-9.7,0.43-15.29-0.59-15.8-1.46c-0.21-0.36-0.37-0.69-0.45-1.16
			c-0.26-1.4-0.61-2.59,0.9-4.27c1.3-1.21,6.23-3.73,11.19-6.55c0.02,1.16,0.41,3,2.74,3.35c3.43,0.53,7.52,0.36,20.16-4
			c3.63-1.25,4.98-3.85,4.98-3.85S777.04,596.45,776.75,598.54z"/>
	</g>
	<g>
		<path class="st8" d="M824.84,602.49c-0.39,0.51-1.77,1.01-3.79,1.5c-0.05-0.08-0.09-0.15-0.14-0.2c-0.19-0.21-0.96,0.1-2.19,0.69
			c-9.88,1.9-28.24,3.35-30.25,3.17c-0.53-0.05-0.93-0.18-1.24-0.38c-0.25-1.38,0.07-3.11,0.81-4.65c1.28-1.18,6.13-3.64,11.01-6.39
			c5.03-2.82,10.08-5.96,11.27-8.36c3.3-6.61-3.91-47.83-3.91-47.83l24.8-9.91c0,0-5.83,44.9-5.16,54.69
			c0.17,2.45,0.32,4.87,0.38,7.1C826.58,596.67,826.3,600.61,824.84,602.49z"/>
	</g>
	<g>
		<path class="st6" d="M827.41,599.03c-0.3,2.05-2.12,9.87-2.3,9.95c-0.36,0.15-4.36,0.03-6.13-0.2c-0.09-0.01,0.96-4.6-1.04-4.13
			c-6.26,1.47-7.79,4.48-14.82,4.76c-9.52,0.38-15.01-0.64-15.51-1.49c-0.2-0.35-0.36-0.68-0.43-1.14c-0.25-1.38-0.59-2.55,0.9-4.19
			c1.28-1.18,6.13-3.64,11.01-6.39c0.02,1.14,0.39,2.95,2.68,3.3c3.37,0.53,7.38,0.38,19.81-3.85c3.57-1.21,4.9-3.76,4.9-3.76
			S827.71,596.98,827.41,599.03z"/>
	</g>
	<g>
		<g>
			<path class="st2" d="M196.05,304.24c-0.74,0-1.38-0.54-1.48-1.29c-0.11-0.81-2.74-20.05,2.71-33.74
				c2.36-5.94,5.23-10.3,7.76-14.14c3.4-5.17,6.34-9.64,7.66-16.78c2.06-11.11,0.02-22.18,0-22.29c-0.15-0.81,0.38-1.6,1.2-1.75
				c0.81-0.15,1.6,0.38,1.75,1.2c0.09,0.47,2.16,11.74,0,23.4c-1.43,7.73-4.67,12.66-8.1,17.88c-2.57,3.91-5.23,7.95-7.48,13.6
				c-5.16,12.96-2.55,32.02-2.53,32.21c0.12,0.82-0.46,1.58-1.28,1.7C196.19,304.23,196.12,304.24,196.05,304.24z"/>
		</g>
		<path class="st3" d="M197.92,298.1c0-0.84-2.75-18.84-10.5-30.34s-16.25-25-23.75-26.5s-9.5,15.75-4,26.5s9.04,11.48,15.82,19
			c6.13,6.8,14.43,14.25,14.43,14.25L197.92,298.1z"/>
		<path class="st3" d="M190.67,298.1c0,0,5.75-15.29,9.25-21.44s14.25-12.15,24.75-20.65s23.5-4,17.75,7.25
			s-16.21,24.99-22.98,26.75c-6.77,1.75-8.27,1.67-11.77,4.46S190.67,298.1,190.67,298.1z"/>
		<path class="st12" d="M204.05,328.47h-16c-14.77,0-26.75-11.98-26.75-26.75l0,0c0-4,3.25-7.25,7.25-7.25h55
			c4,0,7.25,3.25,7.25,7.25l0,0C230.8,316.49,218.82,328.47,204.05,328.47z"/>
		<path class="st15" d="M215.13,211.43c-0.28,0-4.55,0.11-4.77,2.19c-0.22,2.08,1.64,3.17,1.64,5.36c0,2.19,3.53,2.08,4.99,1.2
			c1.46-0.87,3.54-2.95,3.1-4.92C219.66,213.29,218.02,211.42,215.13,211.43z"/>
		<path class="st15" d="M205.53,269.83c0.27-0.31,4.15-5.01,2.11-7.2s-4.96-1.2-7.32-3.25c-2.36-2.05-5.55,1.86-5.98,4.26
			c-0.42,2.4-0.13,6.59,2.41,7.96C199.28,272.97,202.84,272.95,205.53,269.83z"/>
		<path class="st15" d="M217.88,241.75c-0.62-1.48-2.03-4.56-4.5-4.56c-2.47,0-5.84,2.6-6.55,4.56c-0.71,1.97,0.02,2.98,3.06,5.59
			c3.05,2.61,2.93,0.39,5.66-0.07C219.84,246.55,218.42,243.05,217.88,241.75z"/>
		<path class="st2" d="M189.4,288.56c-6.74-12.73-15.01-24.47-24.71-35.11c-0.87-0.95-2.28,0.46-1.41,1.41
			c9.6,10.52,17.74,22.12,24.4,34.7C188.28,290.71,190.01,289.7,189.4,288.56z"/>
		<path class="st2" d="M225.97,267.66c-9.51,6.5-21.3,10.71-25.88,22.18c-0.48,1.2,1.46,1.71,1.93,0.53
			c4.32-10.82,16.03-14.88,24.96-20.99C228.03,268.67,227.03,266.93,225.97,267.66z"/>
	</g>
	<path class="st9" d="M625.75,210.22c-1.29-0.06-1.28,1.94,0,2c12.02,0.58,9.47,21.92,7.41,29.6c-2.48,9.26-7.67,17.43-14.86,23.74
		c-0.97,0.85,0.45,2.26,1.41,1.41c9.06-7.94,15.01-18.9,16.62-30.86C637.48,227.67,637.58,210.79,625.75,210.22z"/>
	<path class="st3" d="M415.83,212.12c0,0-3.1,0.63-4.85,3.25s-3.89,7.75-3.89,7.75l8.74-2.5l-0.96-2.18L415.83,212.12z"/>
	<path class="st6" d="M390.19,217.8c0,0-3.48-1.88-6.35-0.85c-2.88,1.04-3.63,4.79-3.63,4.79l7.5,4.51l2.48-3.13V217.8z"/>
	<path class="st6" d="M414.86,218.44c0,0,1.35-1.48,4.23-0.82c3.64,0.84,4.48,4.13,4.48,4.13l-1.19,1.37L414.86,218.44z"/>
	<path class="st2" d="M409.65,226.81c-0.18-0.14-0.92-0.15-1.07-0.1c-0.49,0.13-0.89,0.72-0.7,1.23l0.55,1.48
		c0.3,0.81,1.34,0.99,1.83,0.24C410.9,228.67,410.53,227.49,409.65,226.81z"/>
	<path class="st2" d="M414.91,239.75c-1.01-0.64-1.61,0.58-1.21,1.56c0.26,0.64,0.36,1.3,0.96,1.71c0.68,0.47,1.44-0.17,1.5-0.86
		C416.26,241.17,415.73,240.27,414.91,239.75z"/>
	<path class="st2" d="M419.74,254.2c-0.62-0.46-1.52,0.17-1.5,0.86c0.01,0.37,0,1.21,0.58,1.95c0.54,0.69,1.56,0.65,1.85-0.18
		C421.01,255.81,420.56,254.81,419.74,254.2z"/>
	<path class="st7" d="M419.16,303.12c-10.11,0.13-21.64,0.23-29.62-7.04c-7.46-6.8-6.57-17.45-7.63-26.63
		c-1.65-14.23-7.03-29.41-21.69-34.62c-1.22-0.43-1.74,1.5-0.53,1.93c9.74,3.46,15.59,12.37,18.25,22
		c2.47,8.95,1.78,18.27,3.81,27.25c3.97,17.48,22.42,19.31,37.41,19.12C420.44,305.1,420.45,303.1,419.16,303.12z"/>
	<path class="st7" d="M400.71,247.74c-2.84-0.36-5.69-0.71-8.53-1.08c-2.66-0.35-3.65-0.21-5.57-2.29c-1.9-2.06-1.69-2.11-2.06-4.7
		c-0.76-5.29-1.49-10.59-2.23-15.88c-0.18-1.27-2.11-0.73-1.93,0.53c0.58,4.12,1.16,8.24,1.73,12.35c0.37,2.66,0.25,6.53,1.79,8.92
		c2.8,4.36,12.5,3.6,16.79,4.15C401.98,249.9,401.97,247.9,400.71,247.74z"/>
	<path class="st7" d="M437.11,237.82c-0.58-2-2.51-3.77-3.8-5.28c-2.37-2.77-4.74-5.53-7.12-8.3c-0.84-0.98-2.25,0.44-1.41,1.41
		c2.91,3.4,5.98,6.71,8.76,10.21c4.03,5.09-2.48,7.37-4.63,11.14c-0.64,1.12,1.09,2.13,1.73,1.01
		C432.61,244.54,438.55,242.75,437.11,237.82z"/>
	<path class="st5" d="M402.82,259.44l-14.46,1.72c-1.13,0.13-2.16-0.67-2.29-1.81l-0.29-2.43c-0.13-1.13,0.67-2.16,1.81-2.3
		l14.46-1.72c1.13-0.13,2.16,0.67,2.29,1.81l0.29,2.43C404.76,258.28,403.95,259.31,402.82,259.44z"/>
	<path class="st5" d="M386.05,166.62c0,0-4.33-15.38-4.71-20.63s7.38-16.38,16-16.25s6.35,9.8,6.35,9.8l-10.23,22.08L386.05,166.62z
		"/>
	<g>
		<g>
			<path class="st8" d="M752.68,149.48c0,0-6.9,43.87,11.55,50.23c9.46,3.26,32.01-2.81,32.6-4.09c0.59-1.28-4.23-48.19-4.23-48.19
				L752.68,149.48z"/>
		</g>
		<g>
			<path class="st8" d="M800.62,218.05c-0.31,0.55-5.51,7.88-5.51,7.88l-19.39-1.36l-5.86-25.09l26.57-7.92
				c0,0,3.66,27.09,4.18,26.49L800.62,218.05z"/>
		</g>
	</g>
	<path class="st15" d="M802.54,211.27c0,0-34.99-4.47-45.32,10.64c-7.99,11.69-14.41,40.44-6.52,60.46c3,7.61,3.52,30.38,7.77,52.63
		c0.53,2.79,43.63-3.25,52.81-4.98c4.24-0.8-1.55-11.36,5.94-24.02c7.25-12.26,14.14-40.06,12-62.86
		C826.88,218.28,802.54,211.27,802.54,211.27z"/>
	<path class="st12" d="M775.91,199.22c0,0,4.08,11.64,8.73,17.07c4.66,5.43,8.87,3.26,9.08,10.91c0.21,7.65,4.33,22.52,13.58,20.52
		s9.5-10.54,7.25-20.52c-2.25-9.98,0.96-18.17-0.75-23.91c-4.5-15.07-9.79-9.61-9.5-23.32c0.25-11.75-11.95-26.57-11.95-26.57
		L775.91,199.22z"/>
	<path class="st12" d="M789.22,136.16c-7.5-2.54-16.5-3.5-28.33,1.66c-11.83,5.17-8.2,11.65-8.2,11.65
		c7.44-0.34,11.82,12.81,9.29,23.01c-1.5,6.04-1.89,11.75,5,14.96c5.83,2.71,7.39,11.52,10.39,13.21
		c12.07,6.84,18.15-4.8,19.36-6.12c0.29-0.31,0.46-0.71,0.54-1.13c0.39-2.15,1.98-10.91,2.29-12.97
		C802.1,163.42,808.27,142.62,789.22,136.16z"/>
	<path class="st8" d="M776.71,224.77c-1.66-7.58-11.11-10.13-16.15-4.31c-2.28,2.64-4.29,6.39-5.45,11.75
		c-4.1,18.96,1.7,63.04,2.6,65.54c0.91,2.49,10.74,5.68,14.54-0.58c3.8-6.26,7.01-54.96,5.89-64.16
		C777.81,230.2,777.28,227.36,776.71,224.77z"/>
	<path class="st12" d="M808.25,325.5c9.37-1.61,10.99,6.01,13.5,10.22c7.39,12.38,13.93,30.33,17.8,57.28
		c4.17,29.05,15.86,114.33-6.14,140c-16.33,19.05-33.26,7-37.58,19.5c-4.33,12.5-26.2,18.73-40.28,5.83
		c-19.77-18.12-20.34-82.31-20.58-104c-0.51-46,10.17-96.81,16.45-115.33c7.79-23,14.6-11.83,31.34-10.79
		C794.55,328.94,802.89,326.42,808.25,325.5z"/>
	<path class="st11" d="M722.32,358.96c0,0,1.73,10.53,3.23,15.53s11.99,10.33,14.25,10.83c2.25,0.5,7.97-3.66,7.97-4.67
		c0-4.33-5.16-9.63-7.21-14.17c-2.05-4.54-4.78-7.53-4.78-7.53H722.32z"/>
	<path class="st8" d="M756.99,293.73c0,0-4.67,8.41-8.27,18.51c-3.6,10.1-10.01,41.27-10.01,41.27c2.1,2.82,11.99,0.02,11.99,0.02
		c6.88-16.74,15.33-27.33,20.96-47.91c1.98-7.22,2.82-16.88,2.82-16.88L756.99,293.73z"/>
	<path class="st8" d="M738.71,353.51c0,0-3.24,3.81-4.99,9.06s-8.25,19.42-2.75,20.67s12.75-1.5,14.75-4.75s4.98-24.96,4.98-24.96
		L738.71,353.51z"/>
	<path class="st12" d="M795.82,158.15c0.89-0.65,8.14-5.15,13.89-2.4s6.75,9.41,3,12.7c-3.75,3.3-10.18,3.06-11.72,3.18
		c-1.53,0.12-8.78-4.63-8.53-5.38S795.82,158.15,795.82,158.15z"/>
	<path class="st6" d="M687.1,196.69c-3.92,0.23-7.03,3.36-7.25,7.28c-0.97,17.08-5.4,62.36-25.68,94.2
		c-27.42,43.06-60.18,64.67-56.55,70.72c3.63,6.04,7.78,9.83,11.5,7.72c3.72-2.11,43.09-45.62,62.05-80.4
		c18.95-34.78,23.33-76.72,23.89-83.75c0.21-2.6,0.26-5.51,0.24-8.13c-0.03-4.42-3.75-7.91-8.16-7.65L687.1,196.69z"/>
	<path class="st6" d="M620.31,446.35h-32.46c-3.92,0-7.09-3.18-7.09-7.09v-67.71c0-3.92,3.18-7.09,7.09-7.09h32.46
		c3.92,0,7.09,3.18,7.09,7.09v67.71C627.4,443.17,624.23,446.35,620.31,446.35z"/>
	<path class="st6" d="M826.42,365.67c0.1-1.28-1.9-1.28-2,0c-2.28,29.35-12.43,57.45-17.29,86.39c-4.78,28.42-6.5,57.28-5.26,86.07
		c0.05,1.28,2.06,1.29,2,0c-1.28-29.9,0.61-59.88,5.85-89.36C814.66,420.97,824.22,393.94,826.42,365.67z"/>
	<path class="st12" d="M304.62,318.48l-20.46,9.12c-0.31,0.14-0.21,0.6,0.13,0.6h40.92c0.34,0,0.44-0.47,0.13-0.6l-20.46-9.12
		C304.8,318.44,304.7,318.44,304.62,318.48z"/>
	<rect x="303.08" y="291.04" class="st12" width="3.33" height="31.33"/>
	<path class="st5" d="M327.39,291.04h-45.28c-2.39,0-4.25-2.05-4.03-4.43l4.24-45.53c0.19-2.08,1.94-3.68,4.03-3.68h36.79
		c2.09,0,3.84,1.59,4.03,3.68l4.24,45.53C331.64,288.99,329.77,291.04,327.39,291.04z"/>
	<path class="st13" d="M604,328.21c-24.5,15.79-73.9,45.34-64.16,105.26c12.16,74.78,5.66,108.2-22.34,139.78
		c-13.2,14.88-29.08,23.35-47.68,36.25H276.06c28.63-20.84,90.83-62.4,113.17-93.5c35-48.71,15.85-64.9,29-110.6
		c12.69-44.1,47.4-62.73,62.76-77.19H604z"/>
</g>
</svg>
